<svg width="208" height="83" viewBox="0 0 208 83" fill="none" xmlns="http://www.w3.org/2000/svg">
<path d="M72.3549 57.0418V43.4561C73.0386 43.0782 73.5065 42.3405 73.5065 41.4947C73.5065 40.649 73.0386 39.9112 72.3549 39.5334V25.7318C73.8844 25.2459 75 23.8244 75 22.1329C75 20.0456 73.3085 18.3541 71.2212 18.3541C70.3035 18.3541 69.4758 18.678 68.828 19.2179L41.2608 3.31094C41.0449 1.43954 39.4434 0 37.518 0C35.5926 0 33.9911 1.45753 33.7752 3.32893L6.20801 19.2358C5.56022 18.678 4.71449 18.3541 3.77879 18.3541C1.69146 18.3541 0 20.0456 0 22.1329C0 23.8424 1.13364 25.2819 2.69914 25.7498V39.4614C1.99736 39.8393 1.52951 40.577 1.52951 41.4407C1.52951 42.3045 1.99736 43.0242 2.69914 43.4201V57.0418C1.13364 57.4916 0 58.9311 0 60.6406C0 62.7279 1.69146 64.4194 3.77879 64.4194C4.71449 64.4194 5.57822 64.0775 6.244 63.5017L33.7752 79.3906C33.9731 81.28 35.5746 82.7555 37.536 82.7555C39.4794 82.7555 41.0809 81.28 41.2968 79.3906L68.774 63.5197C69.4398 64.0775 70.2855 64.4194 71.2032 64.4194C73.2906 64.4194 74.982 62.7279 74.982 60.6406C75 58.9491 73.8844 57.5096 72.3549 57.0418Z" fill="white"/>
<path d="M72.3549 57.0418V43.4561C73.0386 43.0782 73.5065 42.3405 73.5065 41.4947C73.5065 40.649 73.0386 39.9112 72.3549 39.5334V25.7318C73.8844 25.2459 75 23.8244 75 22.1329C75 20.0456 73.3085 18.3541 71.2212 18.3541C70.3035 18.3541 69.4758 18.678 68.828 19.2179L41.2608 3.31094C41.0269 1.43954 39.4434 0 37.518 0C35.5926 0 33.9911 1.45753 33.7752 3.32893L6.20801 19.2358C5.56022 18.678 4.71449 18.3541 3.77879 18.3541C1.69146 18.3541 0 20.0456 0 22.1329C0 23.8424 1.13364 25.2819 2.69914 25.7498V39.4614C1.99736 39.8393 1.52951 40.577 1.52951 41.4407C1.52951 42.3045 1.99736 43.0242 2.69914 43.4201V57.0418C1.13364 57.4916 0 58.9311 0 60.6406C0 62.7279 1.69146 64.4194 3.77879 64.4194C4.71449 64.4194 5.57822 64.0775 6.244 63.5017L33.7752 79.3906C33.9731 81.28 35.5746 82.7555 37.536 82.7555C39.4794 82.7555 41.0809 81.28 41.2968 79.3906L68.774 63.5197C69.4398 64.0775 70.2855 64.4194 71.2032 64.4194C73.2906 64.4194 74.982 62.7279 74.982 60.6406C75 58.9491 73.8844 57.5096 72.3549 57.0418ZM34.261 5.68618C34.315 5.77615 34.387 5.86612 34.441 5.95609L26.2896 20.0456C26.1456 19.9916 25.9837 19.9556 25.8037 19.9556C25.1739 19.9556 24.6521 20.3875 24.4902 20.9633H7.77351L34.261 5.68618ZM7.52159 21.7011H24.5262C24.5981 21.971 24.7601 22.2049 24.976 22.3668L20.0816 30.8421L7.30566 23.4825C7.46761 23.0686 7.55758 22.6188 7.55758 22.1329C7.55758 21.989 7.53959 21.845 7.52159 21.7011ZM6.99976 24.1123L19.7217 31.4539L19.5957 31.6699L10.2027 33.2534L5.66819 25.4079C6.20801 25.084 6.65787 24.6521 6.99976 24.1123ZM5.0024 43.3121C5.6142 42.9163 6.02807 42.2145 6.02807 41.4227C6.02807 40.631 5.6142 39.9292 5.0024 39.5334V25.6958C6.262 27.8731 10.3647 35.0168 10.4547 35.1248C10.4726 35.1608 10.5086 35.1967 10.5266 35.2327C10.8145 35.6646 11.1744 36.0425 11.5523 36.3844C11.7682 36.5823 12.0022 36.7802 12.2541 36.9422C12.3081 36.9782 12.3441 37.0142 12.398 37.0322C13.0998 37.518 13.8556 37.8959 14.6653 38.1478C14.9532 38.2378 15.2591 38.3277 15.547 38.3817C15.601 38.3997 15.655 38.3997 15.709 38.4177C15.8889 38.4537 16.0869 38.4897 16.2668 38.5077C16.3208 38.5257 16.3928 38.5257 16.4647 38.5257C17.7783 38.7056 19.1099 38.6516 20.4415 38.6156C21.6111 38.5977 22.7987 38.5617 23.9683 38.5437L23.9323 36.4203C23.9323 36.1324 24.2562 35.9525 24.5082 36.1144L30.5182 40.1631C30.7162 40.3071 30.7342 40.595 30.5362 40.721L29.7085 41.3328L29.1327 41.7466L27.4952 42.9343L24.6521 45.0756C24.4182 45.2555 24.0763 45.0936 24.0583 44.7877L24.0403 43.636V43.5281V43.1862V42.9523V42.8803V42.7183V42.6644C24.0403 42.6644 24.0403 42.6644 24.0223 42.6644C24.0043 42.6644 24.0223 42.6644 24.0223 42.6644H23.8064L23.2486 42.6823H23.2306L18.3001 42.7723C17.4904 42.7903 16.6807 42.8983 15.8889 43.0962C15.8349 43.1142 15.781 43.1142 15.727 43.1322C15.655 43.1502 15.583 43.1682 15.511 43.1862C15.4031 43.2222 15.2951 43.2582 15.1871 43.2941C15.1332 43.3121 15.0972 43.3301 15.0432 43.3481C14.3954 43.5641 13.7656 43.834 13.1898 44.2119C13.1358 44.2478 13.0638 44.2838 13.0098 44.3378C12.8299 44.4638 12.6679 44.5897 12.524 44.7337C12.0921 45.1476 11.7143 45.5974 11.3544 46.0653C11.2284 46.2272 11.1204 46.3892 11.0125 46.5511C10.9405 46.6591 10.8505 46.785 10.7786 46.893C10.7606 46.929 10.7426 46.965 10.7066 47.001L10.6526 47.0909L10.4547 47.4508L10.3107 47.6847L10.0948 48.0806L10.0768 48.1166V48.1346V48.1526L5.66819 55.7822L5.0024 56.9158V43.3121V43.3121ZM21.809 49.952L20.3335 50.8157L19.7757 49.8441C19.7937 49.8441 19.8117 49.8441 19.8297 49.8441C20.3695 49.88 20.9093 49.898 21.4311 49.934C21.4491 49.934 21.4491 49.934 21.4671 49.934C21.5931 49.952 21.7011 49.952 21.809 49.952ZM7.26967 59.2011L16.7886 53.6948L16.8426 53.6768L17.6164 53.227C17.5804 53.245 17.5444 53.245 17.5084 53.245C17.2925 53.245 17.0945 53.047 16.9866 52.7591L16.8606 52.8311L15.4571 53.6408L6.92778 58.5713C6.58589 58.0674 6.13604 57.6356 5.59621 57.3477L5.66819 57.2037L5.90211 56.8078L10.2207 49.3222L11.8942 49.4122L12.2541 49.4302C12.2721 49.4302 12.2721 49.4302 12.2901 49.4302C12.3081 49.4302 12.3261 49.4302 12.3261 49.4302C12.3441 49.4302 12.362 49.4302 12.38 49.4302C12.38 49.4302 12.38 49.4302 12.398 49.4302H12.416H12.434C12.452 49.4302 12.452 49.4302 12.47 49.4302C12.578 49.4302 12.7039 49.4482 12.8119 49.4482C12.9379 49.4482 13.0458 49.4662 13.1718 49.4662C13.5317 49.4842 13.8916 49.5022 14.2514 49.5202C14.6653 49.5382 15.0612 49.5741 15.475 49.5921C15.9249 49.6281 16.3748 49.6461 16.8246 49.6641C17.3105 49.6821 17.7963 49.7181 18.2822 49.7541C18.3901 49.7541 18.4981 49.7721 18.624 49.7721C18.714 49.7721 18.822 49.7901 18.9119 49.7901L19.7037 51.1756L18.5521 51.8414H18.5341L18.0842 52.0933C18.0842 52.1113 18.0842 52.1293 18.0842 52.1473C18.0842 52.1653 18.0842 52.1833 18.0842 52.2013C18.0842 52.2733 18.0842 52.3273 18.0662 52.3992C18.0662 52.4532 18.0482 52.5072 18.0482 52.5612C18.0482 52.5792 18.0482 52.5792 18.0482 52.5792C18.0302 52.6332 18.0302 52.6691 18.0122 52.7051C18.0122 52.7231 17.9942 52.7591 17.9762 52.7771C17.9762 52.7951 17.9583 52.8131 17.9583 52.8311C17.9583 52.8491 17.9403 52.8671 17.9223 52.8851C17.9223 52.8851 17.9223 52.8851 17.9223 52.9031C17.9043 52.9211 17.9043 52.9391 17.8863 52.9571V52.9751C17.8863 52.9751 17.8863 52.993 17.8683 52.993C17.8323 53.029 17.8143 53.065 17.7783 53.101C17.7783 53.101 17.7603 53.119 17.7423 53.119L19.7037 51.9854H19.7217L19.7397 51.9674C19.8476 51.7155 20.0276 51.5535 20.2255 51.5535C20.3875 51.5535 20.5314 51.6615 20.6394 51.8414C20.6574 51.8594 20.6574 51.8774 20.6754 51.9134C20.6754 51.9314 20.6934 51.9494 20.6934 51.9674C20.6934 51.9854 20.7114 52.0034 20.7114 52.0214C20.7114 52.0394 20.7294 52.0753 20.7294 52.0933C20.7474 52.1473 20.7654 52.2013 20.7654 52.2553C20.7654 52.2733 20.7654 52.2913 20.7834 52.3093C20.7834 52.3453 20.7834 52.3812 20.8013 52.3992C20.8013 52.4532 20.8193 52.5252 20.8193 52.5972C20.8193 52.6691 20.8193 52.7231 20.8013 52.7951C20.7834 52.8851 20.7834 52.975 20.7474 53.047L20.9273 53.3529L21.5571 54.4506L21.5751 54.4686L24.904 60.2267C24.6881 60.4067 24.5262 60.6586 24.4722 60.9285H7.53959C7.53959 60.8385 7.55758 60.7306 7.55758 60.6226C7.55758 60.1188 7.44962 59.6329 7.26967 59.2011ZM34.279 77.0514L7.62956 61.6663H24.5441C24.7061 62.2241 25.2279 62.62 25.8397 62.62C26.0017 62.62 26.1636 62.584 26.3076 62.53L34.513 76.7454C34.405 76.8534 34.351 76.9434 34.279 77.0514ZM37.1581 75.2339C36.3304 75.3059 35.5746 75.6658 34.9988 76.1876L26.8834 62.1161C26.9914 61.9902 27.0813 61.8282 27.1173 61.6663H37.1581V75.2339ZM27.1353 60.9465C26.9914 60.3527 26.4515 59.9208 25.8217 59.9208C25.7498 59.9208 25.6778 59.9208 25.6058 59.9388L20.6934 51.4455L23.1226 50.042C23.6624 50.078 24.2023 50.096 24.7241 50.132C25.2819 50.168 25.8217 50.1859 26.3796 50.2219C26.9194 50.2579 27.4592 50.2759 27.999 50.3119C28.5209 50.3479 29.0427 50.3659 29.5645 50.4019C30.0684 50.4199 30.5722 50.4559 31.0761 50.4918C31.5439 50.5278 32.0118 50.5458 32.4796 50.5638C32.9115 50.5818 33.3433 50.6178 33.7752 50.6358C34.1531 50.6538 34.5489 50.6718 34.9268 50.6898C35.2507 50.7078 35.5926 50.7258 35.9165 50.7438C36.0425 50.7438 36.1864 50.7618 36.3124 50.7618C36.4563 50.7618 36.5823 50.7798 36.7263 50.7798C36.8162 50.7798 36.9062 50.7977 37.0142 50.7977C37.0501 50.7977 37.1041 50.7977 37.1401 50.7977V60.9105H27.1353V60.9465ZM37.1581 28.7368L21.1072 31.4359L20.7114 31.202L25.6418 22.6548C25.7138 22.6727 25.7678 22.6727 25.8397 22.6727C26.4515 22.6727 26.9734 22.2589 27.1353 21.7011H37.1761L37.1581 28.7368ZM27.1353 20.9813C27.0813 20.8013 27.0094 20.6214 26.8834 20.4774L34.9448 6.53191C35.5386 7.08973 36.3124 7.44962 37.1581 7.53959V20.9813H27.1353ZM67.6763 23.4825L55.9801 30.2483L54.9364 30.8421L54.4686 30.0144L50.024 22.3309C50.2219 22.1689 50.3659 21.935 50.4379 21.7011H67.4784C67.4604 21.845 67.4424 21.989 67.4424 22.1329C67.4424 22.6008 67.5324 23.0506 67.6763 23.4825ZM40.775 5.68618L67.2805 20.9813H50.4379C50.2939 20.4055 49.7541 19.9736 49.1243 19.9736C48.9803 19.9736 48.8184 19.9916 48.6924 20.0456L40.595 5.97409C40.649 5.88412 40.721 5.79415 40.775 5.68618ZM40.0912 6.5499L48.0986 20.4595C47.9726 20.6034 47.8827 20.7834 47.8287 20.9813H37.8959L37.8779 7.53959C38.7236 7.46761 39.4974 7.08973 40.0912 6.5499ZM40.0372 76.1876C39.4434 75.6658 38.6876 75.3059 37.8599 75.2339L37.8779 61.6663H47.8287C47.8827 61.8642 47.9906 62.0262 48.1166 62.1881L40.0372 76.1876ZM40.757 77.0514C40.685 76.9434 40.613 76.8354 40.541 76.7275L48.7284 62.548C48.8544 62.584 48.9803 62.602 49.1243 62.602C49.7361 62.602 50.2399 62.2061 50.4199 61.6483H67.4244L40.757 77.0514ZM70.0516 39.5873C69.4218 39.9832 69.0079 40.685 69.0079 41.4767C69.0079 42.2685 69.4218 42.9703 70.0516 43.3661V57.0058V56.9878V56.9698L69.9076 56.7179L64.5633 47.4508L64.3654 47.0909V48.5125L64.5633 48.8724L69.4218 57.3117C68.882 57.5996 68.4321 58.0314 68.0902 58.5353L65.0672 56.7898L65.0492 56.7718L64.1855 56.268L63.9875 56.142L63.4297 55.8181L63.1778 55.8361C63.1778 55.8361 63.1778 55.7822 63.1958 55.6922L63.1778 55.6742L62.566 55.3143C62.44 55.5122 62.2781 55.7102 62.0981 55.8541L63.9875 56.9518L64.1855 57.0777L64.9052 57.4916H64.9232L67.7483 59.1291C67.5504 59.5789 67.4604 60.0828 67.4604 60.5866C67.4604 60.6946 67.4604 60.7846 67.4784 60.8925H50.4559C50.3839 60.6406 50.2579 60.4067 50.06 60.2267L52.8851 55.3323C52.7951 55.1883 52.7051 55.0444 52.6512 54.9004C52.6152 54.8105 52.5792 54.7385 52.5612 54.6485L52.5252 54.5406L51.9494 55.5482C52.0034 55.7462 52.0214 55.9441 52.0214 56.16L51.5895 56.178L49.4482 59.8848C49.3582 59.8668 49.2682 59.8489 49.1603 59.8489C48.5305 59.8489 47.9906 60.2807 47.8467 60.8745H37.9139L37.8959 50.7977V41.9266L38.7596 42.4304L39.4434 42.8263V41.9986L38.7596 41.6027L38.2558 41.3148L38.7596 41.0269L39.4434 40.631V39.8033L38.7596 40.1991L37.8959 40.703V28.7728L37.9139 21.7191H47.8647C48.0266 22.2769 48.5485 22.6907 49.1603 22.6907C49.2502 22.6907 49.3222 22.6907 49.3942 22.6727L53.137 29.1327L53.9467 30.5362L54.3246 31.202V31.22L53.7668 31.5439L53.011 31.9758L49.1963 34.1711L49.1603 34.1891C49.3222 34.1891 49.4842 34.1891 49.6641 34.1891C49.952 34.1891 50.2579 34.2071 50.5638 34.2071L50.5998 34.1891L53.011 32.7855L54.1087 32.1557L54.3246 32.0298L54.6845 31.8138L55.1164 32.5696L56.106 34.261H56.7718H56.9518L55.8361 32.3357L55.3143 31.4539L56.376 30.8421L68.0182 24.1303C68.3601 24.6701 68.81 25.102 69.3678 25.4259L63.0338 36.3484L62.9259 36.5463C63.0158 36.7622 63.1058 36.9782 63.1778 37.1761C63.2138 37.2481 63.2318 37.3201 63.2498 37.392L63.3757 37.1761L69.9976 25.7138C70.0156 25.7138 70.0336 25.7318 70.0516 25.7318V39.5873V39.5873Z" fill="url(#paint0_linear_554_47)"/>
<path d="M61.3963 48.2246L61.1264 53.065C61.0904 53.5868 60.8025 54.0187 60.3706 54.2886C60.2266 54.3786 60.0647 54.4505 59.9027 54.4865C59.8128 54.5045 59.6328 54.5405 59.4349 54.5585C58.7151 54.6125 57.5275 54.6305 57.1496 54.6485C56.4658 54.6665 55.7641 54.6485 55.1703 54.2706C54.9003 54.1087 54.6664 53.8747 54.4865 53.6228C54.4685 53.6048 54.4505 53.5688 54.4325 53.5508C54.4145 53.5328 54.4145 53.5148 54.3965 53.4969C54.3785 53.4789 54.3785 53.4609 54.3605 53.4429C54.3425 53.4249 54.3425 53.4069 54.3245 53.3889C54.2885 53.3349 54.2705 53.2809 54.2526 53.2269C54.2346 53.1909 54.2166 53.137 54.1986 53.101C54.1806 53.065 54.1626 53.029 54.1626 52.993C54.1446 52.957 54.1446 52.921 54.1446 52.903C54.1266 52.8671 54.1266 52.8311 54.1266 52.7951C54.1086 52.7051 54.0906 52.6151 54.0906 52.5252L53.9287 49.3222L53.8747 48.2785C53.8567 47.8107 54.2166 47.3968 54.6844 47.3968L56.7897 47.3788H57.6175L60.6045 47.3608C61.0364 47.3608 61.4143 47.7567 61.3963 48.2246Z" fill="#2D2D69"/>
<path d="M63.7717 44.4821C63.7177 44.752 63.4478 44.95 63.1419 44.95H63.0879L62.2782 44.968L58.8593 45.0039L58.0316 45.0219L48.7285 45.1299C47.9908 45.1299 47.397 44.6081 47.397 43.9423V39.5337C47.397 39.1738 47.7569 38.8859 48.1527 38.9579L48.4406 39.0119C48.7645 39.0658 49.0704 39.0838 49.3943 39.0838H62.3322C62.4401 39.0838 62.5301 39.1558 62.5481 39.2458L63.7537 44.1222L63.7717 44.1762C63.7897 44.2842 63.7897 44.3741 63.7717 44.4821Z" fill="#2D2D69"/>
<path d="M45.9034 39.6414V44.3379C45.9034 44.7878 45.4895 45.1117 45.0576 45.0037L43.942 44.7158L43.6361 44.6438C43.1682 44.5179 42.7724 44.2479 42.4845 43.8881C42.1965 43.5102 42.0166 43.0423 42.0166 42.5385V39.6414C42.0166 39.2096 42.3585 38.8677 42.7724 38.8677H45.1116C45.5615 38.8677 45.9034 39.2096 45.9034 39.6414Z" fill="#2D2D69"/>
<path d="M65.049 53.5871C65.049 53.5691 65.049 53.5331 65.049 53.5151C65.049 53.4971 65.049 53.4791 65.049 53.4611C65.049 53.4431 65.049 53.4251 65.0311 53.4071C65.0131 53.3711 65.0131 53.3172 64.9771 53.2812V53.2632C64.9771 53.2452 64.9591 53.2452 64.9591 53.2272C64.9411 53.2092 64.9231 53.1732 64.9231 53.1552C64.9051 53.1372 64.8871 53.1012 64.8691 53.0832C64.8511 53.0652 64.8331 53.0472 64.8151 53.0292C64.7971 53.0112 64.7791 52.9933 64.7611 52.9753C64.7431 52.9573 64.7072 52.9393 64.6892 52.9213C64.6712 52.9033 64.6532 52.9033 64.6352 52.8853C64.6172 52.8853 64.5992 52.8673 64.5992 52.8673C64.5992 52.8673 64.5992 52.8673 64.5812 52.8673C64.5632 52.8673 64.5452 52.8493 64.5272 52.8493C64.5092 52.8313 64.4732 52.8313 64.4552 52.8133L64.1133 52.7053C64.0234 52.6694 63.9514 52.5794 63.9514 52.4894V51.6437C63.9514 51.6257 63.9514 51.6257 63.9514 51.6077C63.9514 51.5897 63.9514 51.5897 63.9514 51.5897C63.9514 51.5717 63.9514 51.5717 63.9514 51.5537C63.9514 51.5357 63.9514 51.5177 63.9334 51.5177C63.9334 51.4997 63.9154 51.4817 63.9154 51.4817C63.9154 51.4637 63.8974 51.4457 63.8974 51.4457C63.8974 51.4278 63.8794 51.4098 63.8794 51.4098C63.8614 51.3918 63.8434 51.3558 63.8254 51.3378C63.8074 51.3198 63.8074 51.3198 63.7895 51.3018C63.7715 51.3018 63.7715 51.2838 63.7535 51.2658C63.7355 51.2658 63.7175 51.2478 63.7175 51.2478C63.6995 51.2478 63.6815 51.2298 63.6635 51.2298H63.6455C63.6455 51.2298 63.6455 51.2298 63.6275 51.2298C63.6275 51.2298 63.6275 51.2298 63.6275 51.2478V51.2658C63.6275 51.2838 63.6275 51.2838 63.6275 51.3198V51.3378C63.6275 51.3558 63.6095 51.3918 63.6095 51.4098C63.6095 51.4457 63.5915 51.4817 63.5915 51.5177C63.5735 51.6077 63.5555 51.7157 63.5195 51.8416V51.8596C63.4656 52.0935 63.4116 52.3815 63.3396 52.6694C63.3036 52.8313 63.2676 53.0112 63.2316 53.1732C63.1776 53.3711 63.1417 53.5691 63.1057 53.731C63.0337 54.0909 62.9617 54.3788 62.9437 54.5048V54.5408C62.9437 54.5588 62.9437 54.5588 62.9437 54.5588C62.8717 54.8647 62.7638 55.1346 62.6018 55.3865C62.4759 55.5844 62.3139 55.7824 62.134 55.9263C61.6841 56.3222 61.1083 56.5561 60.4785 56.5741L59.1289 56.6101L55.5661 56.7181C54.5044 56.7541 53.5147 56.2322 52.9569 55.4045C52.8669 55.2605 52.777 55.1166 52.723 54.9726C52.687 54.8826 52.651 54.8107 52.633 54.7207L52.597 54.6127L51.6433 51.9136L51.4454 51.3738C51.4094 51.2478 51.2835 51.1758 51.1575 51.1758H47.8106L47.1268 51.1398L40.9368 50.8699H38.7954C38.7415 50.8699 38.7055 50.8699 38.6515 50.8699C38.5255 50.8699 38.3816 50.8519 38.2556 50.8519C38.1477 50.8519 38.0577 50.8339 37.9497 50.8339C37.9317 50.8339 37.9137 50.8339 37.8957 50.8339C37.8058 50.8339 37.7158 50.8159 37.6258 50.8159C37.4999 50.8159 37.3559 50.798 37.2299 50.798C37.086 50.798 36.942 50.78 36.7981 50.78C36.4562 50.762 36.1143 50.744 35.7724 50.726C35.3765 50.708 34.9807 50.69 34.5848 50.672C34.1349 50.654 33.7031 50.618 33.2532 50.6C32.7674 50.582 32.2815 50.546 31.7957 50.528C31.2739 50.4921 30.752 50.4741 30.2482 50.4381C29.7084 50.4021 29.1685 50.3841 28.6287 50.3481C28.0709 50.3121 27.5131 50.2941 26.9552 50.2581C26.3794 50.2221 25.8216 50.1861 25.2458 50.1682C24.67 50.1322 24.0942 50.1142 23.5363 50.0782C23.4464 50.0782 23.3564 50.0602 23.2484 50.0602C22.8166 50.0422 22.3667 50.0062 21.9348 49.9882C21.8989 49.9882 21.8809 49.9882 21.8449 49.9882C21.2871 49.9522 20.7472 49.9342 20.1894 49.8982C20.0814 49.8982 19.9735 49.8803 19.8655 49.8803C19.5776 49.8623 19.2897 49.8443 19.0198 49.8263C18.8758 49.8263 18.7499 49.8083 18.6059 49.8083C18.1021 49.7903 17.5982 49.7543 17.0944 49.7183C16.6265 49.7003 16.1587 49.6643 15.6908 49.6463C15.277 49.6283 14.8451 49.5923 14.4312 49.5743C14.0534 49.5564 13.6935 49.5384 13.3156 49.5204C13.1896 49.5204 13.0457 49.5024 12.9197 49.5024C12.8118 49.5024 12.7038 49.4844 12.5778 49.4844C12.5598 49.4844 12.5598 49.4844 12.5418 49.4844H12.5239C12.5239 49.4844 12.5239 49.4844 12.5059 49.4844V51.9136C12.5059 52.1835 12.7218 52.3994 12.9917 52.4354L13.9454 52.5254C14.0894 53.2092 14.4672 53.695 14.9171 53.695C14.9351 53.695 14.9531 53.695 14.9711 53.695H15.8168C16.1227 53.695 16.3746 53.4791 16.5726 53.1372C16.6625 53.3891 16.7705 53.5871 16.8965 53.749C17.0764 53.9649 17.3103 54.1089 17.5442 54.1089C17.5622 54.1089 17.5802 54.1089 17.5982 54.1089H18.5159C18.8398 54.1089 19.1277 53.875 19.3257 53.5151C19.5236 54.1449 19.9195 54.5767 20.3873 54.5767C20.4053 54.5767 20.4233 54.5767 20.4413 54.5767H21.431C21.539 54.5767 21.6289 54.5588 21.7189 54.5228C21.9348 54.4328 22.1148 54.2708 22.2587 54.0189C22.3847 53.821 22.4747 53.5871 22.5466 53.3171L30.86 54.0909C30.86 54.1269 30.86 54.1449 30.86 54.1809C30.86 55.6924 31.5978 56.898 32.5155 56.898C32.5335 56.898 32.5694 56.898 32.5874 56.898H33.937C34.4228 56.898 34.8727 56.5561 35.1606 55.9803L37.2839 56.1782L38.0037 56.2502L40.235 56.4661C40.4689 57.9597 41.2787 59.0753 42.2503 59.0753C42.2863 59.0753 42.3043 59.0753 42.3403 59.0753H44.0318C44.5716 59.0753 45.0574 58.7334 45.4353 58.1756C45.4533 58.1576 45.4713 58.1396 45.4713 58.1216C45.5793 58.2296 45.7052 58.2836 45.8672 58.3016C45.8672 58.3016 47.7386 58.4275 47.7926 58.4275C47.8286 58.4275 47.8645 58.4275 47.9005 58.4275C47.9545 58.4275 48.0985 58.4095 48.1345 58.4095H48.2964H48.3504L50.5097 58.3196L51.3554 58.2836L54.4864 58.1756C54.6664 58.0136 55.0083 57.8697 55.6561 57.8697L59.5788 57.7437C59.6328 57.8337 59.6868 57.9237 59.7587 58.0136C60.0826 58.4635 60.5145 58.7514 60.9823 58.7514C61.0183 58.7514 61.0363 58.7514 61.0723 58.7514H62.6378C63.1597 58.7514 63.6275 58.4095 63.9694 57.8517C63.9694 57.8517 63.9874 57.8337 63.9874 57.8157L64.6172 57.7977C64.7611 57.7977 64.9051 57.7257 65.0131 57.6358C65.0131 57.6358 65.0311 57.6178 65.049 57.5998C65.139 57.4918 65.193 57.3659 65.193 57.2039V53.713C65.049 53.6231 65.049 53.6051 65.049 53.5871ZM15.331 52.0935C15.331 52.1295 15.313 52.1835 15.313 52.2195C15.313 52.2375 15.313 52.2735 15.295 52.2915C15.295 52.3095 15.277 52.3455 15.277 52.3635C15.277 52.3814 15.259 52.3994 15.259 52.4174C15.259 52.4354 15.241 52.4714 15.223 52.4894C15.205 52.5074 15.205 52.5434 15.187 52.5614C15.079 52.7593 14.9351 52.8853 14.7731 52.8853C14.4672 52.8853 14.2153 52.4534 14.2153 51.9316C14.2153 51.4098 14.4672 50.9779 14.7731 50.9779C14.7911 50.9779 14.8091 50.9779 14.8271 50.9779H14.8451C14.8631 50.9779 14.8811 50.9779 14.8811 50.9959C14.8991 50.9959 14.9171 51.0139 14.9351 51.0139C14.9531 51.0139 14.9711 51.0319 14.9891 51.0319C15.0071 51.0499 15.0251 51.0679 15.043 51.0859L15.061 51.1039C15.097 51.1398 15.115 51.1758 15.151 51.2118C15.151 51.2118 15.169 51.2298 15.169 51.2478C15.187 51.2658 15.187 51.2838 15.205 51.3018C15.223 51.3198 15.223 51.3558 15.241 51.3738C15.259 51.3918 15.259 51.4278 15.277 51.4457C15.277 51.4637 15.295 51.4817 15.295 51.4997C15.313 51.5177 15.313 51.5537 15.313 51.5717C15.313 51.5897 15.331 51.6257 15.331 51.6437C15.331 51.6797 15.349 51.7157 15.349 51.7696C15.349 51.8236 15.3669 51.8956 15.3669 51.9496C15.349 51.9856 15.3489 52.0396 15.331 52.0935ZM18.1021 52.3814C18.1021 52.4354 18.0841 52.4894 18.0841 52.5434C18.0841 52.5614 18.0841 52.5614 18.0841 52.5614C18.0661 52.6154 18.0661 52.6514 18.0481 52.6873C18.0481 52.7053 18.0301 52.7413 18.0121 52.7593C18.0121 52.7773 17.9941 52.7953 17.9941 52.8133C17.9941 52.8313 17.9761 52.8493 17.9581 52.8673C17.9581 52.8673 17.9581 52.8673 17.9581 52.8853C17.9581 52.8853 17.9581 52.9033 17.9401 52.9033C17.9401 52.9213 17.9221 52.9213 17.9221 52.9393C17.9221 52.9393 17.9221 52.9393 17.9221 52.9573C17.9221 52.9573 17.9221 52.9753 17.9041 52.9753C17.8681 53.0112 17.8501 53.0472 17.8142 53.0832C17.8142 53.0832 17.7962 53.1012 17.7782 53.1012C17.7422 53.1372 17.6882 53.1552 17.6342 53.1732C17.6342 53.1732 17.6342 53.1732 17.6162 53.1732C17.5802 53.1912 17.5442 53.1912 17.5083 53.1912C17.2923 53.1912 17.0944 52.9933 16.9864 52.7053C16.9324 52.5434 16.8965 52.3635 16.8965 52.1475C16.8965 51.5717 17.1664 51.1039 17.5083 51.1039C17.7062 51.1039 17.8861 51.2658 17.9941 51.5177C17.9941 51.5357 18.0121 51.5537 18.0121 51.5717C18.0301 51.5897 18.0301 51.6257 18.0481 51.6437C18.0661 51.6977 18.0841 51.7516 18.0841 51.8056C18.0841 51.8236 18.0841 51.8416 18.1021 51.8596C18.1021 51.8956 18.1021 51.9316 18.1201 51.9496C18.1381 51.9676 18.1201 52.0216 18.1201 52.0396V52.0935C18.1201 52.1115 18.1201 52.1295 18.1201 52.1475C18.1021 52.2555 18.1021 52.3275 18.1021 52.3814ZM20.8372 52.7953C20.8192 52.8853 20.8192 52.9753 20.7832 53.0472C20.7652 53.1012 20.7472 53.1732 20.7112 53.2272C20.6932 53.2452 20.6932 53.2812 20.6752 53.2992C20.5673 53.5151 20.4053 53.641 20.2254 53.641C19.8835 53.641 19.6136 53.1732 19.6136 52.5974C19.6136 52.3635 19.6676 52.1475 19.7395 51.9676C19.8475 51.7157 20.0275 51.5537 20.2254 51.5537C20.3873 51.5537 20.5313 51.6617 20.6393 51.8416C20.6573 51.8596 20.6573 51.8776 20.6752 51.9136C20.6752 51.9316 20.6932 51.9496 20.6932 51.9676C20.6932 51.9856 20.7112 52.0036 20.7112 52.0216C20.7112 52.0396 20.7292 52.0755 20.7292 52.0935C20.7472 52.1475 20.7652 52.2015 20.7652 52.2555C20.7652 52.2735 20.7652 52.2915 20.7832 52.3095C20.7832 52.3455 20.7832 52.3815 20.8012 52.3994C20.8012 52.4534 20.8192 52.5254 20.8192 52.5974C20.8192 52.6694 20.8552 52.7233 20.8372 52.7953ZM33.1633 54.2708C33.1633 54.3248 33.1632 54.3608 33.1453 54.3968C33.1453 54.4328 33.1453 54.4688 33.1273 54.4868C33.1273 54.5048 33.1273 54.5228 33.1273 54.5408C33.1273 54.5767 33.1093 54.6307 33.1093 54.6667C33.1093 54.7027 33.0913 54.7207 33.0913 54.7387C33.0913 54.7567 33.0733 54.7927 33.0733 54.8107C33.0733 54.8467 33.0553 54.8647 33.0373 54.9006C33.0193 54.9366 33.0013 54.9726 33.0013 55.0086C32.8394 55.3865 32.5694 55.6384 32.2815 55.6384C31.7777 55.6384 31.3818 54.9546 31.3818 54.1089C31.3818 53.2632 31.7777 52.5794 32.2815 52.5794C32.5874 52.5794 32.8394 52.8313 33.0013 53.2092C33.0193 53.2452 33.0373 53.2812 33.0373 53.3171C33.0553 53.3531 33.0553 53.3891 33.0733 53.4251C33.0733 53.4431 33.0913 53.4611 33.0913 53.4791C33.0913 53.5151 33.1093 53.5331 33.1093 53.5691C33.1093 53.6051 33.1273 53.641 33.1273 53.695C33.1273 53.713 33.1273 53.731 33.1273 53.749C33.1273 53.785 33.1273 53.821 33.1453 53.857C33.1453 53.893 33.1453 53.9469 33.1633 53.9829C33.1633 54.0369 33.1633 54.0909 33.1633 54.1449C33.1633 54.1629 33.1633 54.2169 33.1633 54.2708ZM43.1321 55.7644C43.1321 55.8004 43.1321 55.8363 43.1321 55.8723C43.1321 55.9083 43.1321 55.9623 43.1141 55.9983C43.1141 56.0523 43.0961 56.0883 43.0961 56.1422C43.0961 56.1602 43.0961 56.1782 43.0961 56.1962C43.0961 56.2502 43.0781 56.2862 43.0601 56.3402C43.0421 56.3942 43.0421 56.4302 43.0241 56.4841C43.0241 56.5021 43.0061 56.5381 43.0061 56.5561C43.0061 56.5741 42.9881 56.5921 42.9881 56.6281C42.9701 56.6461 42.9701 56.6821 42.9521 56.7001C42.9521 56.7181 42.9341 56.7361 42.9161 56.772C42.8981 56.808 42.8801 56.844 42.8621 56.862C42.8442 56.88 42.8442 56.898 42.8262 56.916C42.6282 57.2939 42.3223 57.5278 41.9984 57.5278C41.3686 57.5278 40.8648 56.6641 40.8648 55.5844C40.8648 54.5228 41.3686 53.641 41.9984 53.641C42.3763 53.641 42.7002 53.9469 42.8981 54.4148C42.8981 54.4328 42.9161 54.4508 42.9161 54.4688C42.9341 54.4868 42.9341 54.5228 42.9521 54.5408C42.9701 54.5588 42.9701 54.5767 42.9701 54.6127C42.9881 54.6307 42.9881 54.6667 42.9881 54.6847C43.0061 54.7387 43.0241 54.7747 43.0241 54.8287C43.0421 54.8827 43.0421 54.9186 43.0601 54.9726C43.0601 54.9906 43.0601 55.0086 43.0781 55.0266C43.0781 55.0806 43.0961 55.1166 43.0961 55.1706C43.0961 55.2065 43.1141 55.2605 43.1141 55.2965C43.1141 55.3325 43.1141 55.3685 43.1141 55.4045C43.1141 55.4585 43.1141 55.5304 43.1141 55.5844C43.1501 55.6384 43.1501 55.6924 43.1321 55.7644ZM51.5534 56.2502L49.628 56.3042C48.9982 56.3222 48.4584 55.8723 48.4224 55.2785L48.3504 54.2349C48.3324 54.0549 48.4943 53.893 48.6743 53.893L49.574 53.911C50.7076 53.929 51.6613 54.6667 51.9312 55.6384C51.9852 55.8363 52.0032 56.0343 52.0032 56.2502H51.5534ZM64.5812 55.0446C64.5812 55.4585 64.2393 55.8183 63.8074 55.8363L63.4116 55.8543L63.1597 55.8723C63.1597 55.8723 63.1597 55.8184 63.1776 55.7284C63.2136 55.4405 63.3036 54.8647 63.3036 54.8467C63.3756 54.4148 63.7355 54.0729 64.1853 54.0189H64.2753C64.4552 54.0009 64.5992 54.1449 64.5992 54.3248C64.5812 54.6307 64.5812 55.0446 64.5812 55.0446Z" fill="#2D2D69"/>
<path d="M54.8823 32.7494C55.6276 32.7494 56.2318 32.1452 56.2318 31.3999C56.2318 30.6545 55.6276 30.0503 54.8823 30.0503C54.1369 30.0503 53.5327 30.6545 53.5327 31.3999C53.5327 32.1452 54.1369 32.7494 54.8823 32.7494Z" fill="#128DE0"/>
<path d="M20.3335 32.7494C21.0788 32.7494 21.683 32.1452 21.683 31.3999C21.683 30.6545 21.0788 30.0503 20.3335 30.0503C19.5881 30.0503 18.9839 30.6545 18.9839 31.3999C18.9839 32.1452 19.5881 32.7494 20.3335 32.7494Z" fill="#1E87F4"/>
<path d="M54.3065 29.9964V34.315C53.0109 34.279 51.7154 34.243 50.5637 34.2071C50.2578 34.2071 49.3221 34.1891 49.1602 34.1711C48.2785 34.1531 47.5767 34.1351 47.1808 34.1351C46.9469 34.1351 46.8029 34.1351 46.8029 34.1351L42.4303 34.423L40.343 34.5489C40.199 34.5489 40.0731 34.6029 39.9471 34.6569C39.8032 34.7289 39.6772 34.8368 39.5872 34.9808C39.4973 35.1248 39.4433 35.3047 39.4433 35.4846V50.8337L39.9651 50.8517H38.7415C38.6875 50.8517 38.6515 50.8517 38.5976 50.8517C38.4716 50.8517 38.3276 50.8337 38.2017 50.8337C38.0937 50.8337 38.0037 50.8157 37.8958 50.8157C37.8778 50.8157 37.8598 50.8157 37.8418 50.8157V28.6108H37.8778L53.0829 29.1147H53.1189L53.4788 29.1327C53.9287 29.1507 54.3065 29.5285 54.3065 29.9964Z" fill="#128DE0"/>
<path d="M94.0188 35.9248H104.75V33.2998H94.0188C91.8348 33.2998 90.0708 35.0848 90.0708 37.2688V44.0308C90.0708 46.2148 91.8348 47.9998 94.0188 47.9998H104.75V45.3748H94.0188C93.2838 45.3748 92.6748 44.7658 92.6748 44.0308V41.2588H102.125V38.6338H92.6748V37.2688C92.6748 36.5338 93.2838 35.9248 94.0188 35.9248Z" fill="#2D2D69"/>
<path d="M120.16 33.2998L118.816 35.9248L115.603 42.2248L112.39 35.9248L111.046 33.2998H108.106L109.45 35.9248L115.603 47.9998L121.756 35.9248L123.1 33.2998H120.16Z" fill="#2D2D69"/>
<path d="M133.313 33.2998C129.26 33.2998 125.963 36.5968 125.963 40.6498C125.963 44.7028 129.26 47.9998 133.313 47.9998C137.366 47.9998 140.663 44.7028 140.663 40.6498C140.663 36.5968 137.366 33.2998 133.313 33.2998ZM133.313 45.3748C130.709 45.3748 128.588 43.2538 128.588 40.6498C128.588 38.0458 130.709 35.9248 133.313 35.9248C135.917 35.9248 138.038 38.0458 138.038 40.6498C138.038 43.2538 135.917 45.3748 133.313 45.3748Z" fill="#2D2D69"/>
<path d="M148.748 45.3748C147.824 45.2488 147.089 44.5138 146.963 43.5898V33.3208H144.338V43.3378C144.338 44.0728 144.506 44.7658 144.821 45.3958C145.262 46.3198 146.018 47.0758 146.942 47.5378C147.572 47.8528 148.265 48.0208 149 48.0208H156.455V45.3958L148.748 45.3748Z" fill="#2D2D69"/>
<path d="M165.855 33.2998C161.802 33.2998 158.505 36.5968 158.505 40.6498C158.505 44.7028 161.802 47.9998 165.855 47.9998C169.908 47.9998 173.205 44.7028 173.205 40.6498C173.205 36.5968 169.908 33.2998 165.855 33.2998ZM165.855 45.3748C163.251 45.3748 161.13 43.2538 161.13 40.6498C161.13 38.0458 163.251 35.9248 165.855 35.9248C168.459 35.9248 170.58 38.0458 170.58 40.6498C170.58 43.2538 168.459 45.3748 165.855 45.3748Z" fill="#2D2D69"/>
<path d="M187.865 45.3748L181.712 33.2998L175.559 45.3748L174.215 47.9998H177.155L178.499 45.3748L181.712 39.0748L184.925 45.3748L186.269 47.9998H189.209L187.865 45.3748Z" fill="#2D2D69"/>
<path d="M192.577 33.2998V47.9998H199.927C201.943 47.9998 203.77 47.1808 205.093 45.8368C205.24 45.6898 205.387 45.5428 205.513 45.3958C206.605 44.1148 207.256 42.4558 207.256 40.6498C207.256 36.5968 203.959 33.3208 199.906 33.3208L192.577 33.2998ZM195.181 35.9458H199.906C202.51 35.9458 204.631 38.0668 204.631 40.6708C204.631 43.2748 202.51 45.3958 199.906 45.3958H195.181V35.9458Z" fill="#2D2D69"/>
<path d="M94.0188 35.9248H104.75V33.2998H94.0188C91.8348 33.2998 90.0708 35.0848 90.0708 37.2688V44.0308C90.0708 46.2148 91.8348 47.9998 94.0188 47.9998H104.75V45.3748H94.0188C93.2838 45.3748 92.6748 44.7658 92.6748 44.0308V41.2588H102.125V38.6338H92.6748V37.2688C92.6748 36.5338 93.2838 35.9248 94.0188 35.9248Z" stroke="#2D2D69" stroke-width="0.35"/>
<path d="M120.16 33.2998L118.816 35.9248L115.603 42.2248L112.39 35.9248L111.046 33.2998H108.106L109.45 35.9248L115.603 47.9998L121.756 35.9248L123.1 33.2998H120.16Z" stroke="#2D2D69" stroke-width="0.35"/>
<path d="M133.313 33.2998C129.26 33.2998 125.963 36.5968 125.963 40.6498C125.963 44.7028 129.26 47.9998 133.313 47.9998C137.366 47.9998 140.663 44.7028 140.663 40.6498C140.663 36.5968 137.366 33.2998 133.313 33.2998ZM133.313 45.3748C130.709 45.3748 128.588 43.2538 128.588 40.6498C128.588 38.0458 130.709 35.9248 133.313 35.9248C135.917 35.9248 138.038 38.0458 138.038 40.6498C138.038 43.2538 135.917 45.3748 133.313 45.3748Z" stroke="#2D2D69" stroke-width="0.35"/>
<path d="M148.748 45.3748C147.824 45.2488 147.089 44.5138 146.963 43.5898V33.3208H144.338V43.3378C144.338 44.0728 144.506 44.7658 144.821 45.3958C145.262 46.3198 146.018 47.0758 146.942 47.5378C147.572 47.8528 148.265 48.0208 149 48.0208H156.455V45.3958L148.748 45.3748Z" stroke="#2D2D69" stroke-width="0.35"/>
<path d="M165.855 33.2998C161.802 33.2998 158.505 36.5968 158.505 40.6498C158.505 44.7028 161.802 47.9998 165.855 47.9998C169.908 47.9998 173.205 44.7028 173.205 40.6498C173.205 36.5968 169.908 33.2998 165.855 33.2998ZM165.855 45.3748C163.251 45.3748 161.13 43.2538 161.13 40.6498C161.13 38.0458 163.251 35.9248 165.855 35.9248C168.459 35.9248 170.58 38.0458 170.58 40.6498C170.58 43.2538 168.459 45.3748 165.855 45.3748Z" stroke="#2D2D69" stroke-width="0.35"/>
<path d="M187.865 45.3748L181.712 33.2998L175.559 45.3748L174.215 47.9998H177.155L178.499 45.3748L181.712 39.0748L184.925 45.3748L186.269 47.9998H189.209L187.865 45.3748Z" stroke="#2D2D69" stroke-width="0.35"/>
<path d="M192.577 33.2998V47.9998H199.927C201.943 47.9998 203.77 47.1808 205.093 45.8368C205.24 45.6898 205.387 45.5428 205.513 45.3958C206.605 44.1148 207.256 42.4558 207.256 40.6498C207.256 36.5968 203.959 33.3208 199.906 33.3208L192.577 33.2998ZM195.181 35.9458H199.906C202.51 35.9458 204.631 38.0668 204.631 40.6708C204.631 43.2748 202.51 45.3958 199.906 45.3958H195.181V35.9458Z" stroke="#2D2D69" stroke-width="0.35"/>
<defs>
<linearGradient id="paint0_linear_554_47" x1="0" y1="41.3868" x2="74.991" y2="41.3868" gradientUnits="userSpaceOnUse">
<stop stop-color="#0094FF"/>
<stop offset="1" stop-color="#0094FF"/>
</linearGradient>
</defs>
</svg>
