<?xml version="1.0" standalone="no"?>
<!DOCTYPE svg PUBLIC "-//W3C//DTD SVG 20010904//EN"
 "http://www.w3.org/TR/2001/REC-SVG-20010904/DTD/svg10.dtd">
<svg version="1.0" xmlns="http://www.w3.org/2000/svg"
 width="260.000000pt" height="260.000000pt" viewBox="0 0 260.000000 260.000000"
 preserveAspectRatio="xMidYMid meet">
<metadata>
Created by potrace 1.14, written by Peter Selinger 2001-2017
</metadata>
<g transform="translate(0.000000,260.000000) scale(0.100000,-0.100000)"
fill="#000000" stroke="none">
<path d="M179 1676 c-70 -24 -121 -79 -140 -148 -5 -21 -9 -128 -9 -239 2
-227 10 -273 61 -325 60 -62 80 -65 414 -62 l299 3 1 63 c1 35 -3 66 -8 69 -6
3 -140 6 -299 7 l-290 1 -19 23 c-15 19 -18 40 -18 108 l0 84 250 0 249 0 0
70 c0 39 -3 70 -7 71 -5 0 -116 1 -248 2 l-240 2 -3 41 c-2 33 2 48 21 70 l25
29 293 0 294 0 0 70 -1 70 -294 2 c-213 1 -305 -2 -331 -11z"/>
<path d="M931 1678 c0 -7 87 -186 193 -398 l194 -385 196 393 c108 215 196
394 196 397 0 3 -35 4 -77 3 l-78 -3 -115 -227 c-63 -125 -118 -229 -121 -233
-3 -3 -59 100 -124 230 l-118 235 -73 0 c-53 0 -74 -4 -73 -12z"/>
<path d="M2112 1680 c-101 -21 -207 -100 -257 -191 -78 -144 -64 -325 33 -443
48 -58 78 -81 149 -114 71 -33 195 -40 266 -16 334 114 368 576 54 728 -79 39
-167 51 -245 36z m205 -176 c74 -43 126 -149 116 -236 -23 -212 -275 -298
-422 -145 -108 113 -76 318 61 388 83 43 165 40 245 -7z"/>
</g>
</svg>
